# xmcd CD database file
#
# Track frame offsets:
#	150
#	13995
#	28255
#	42382
#	56072
#	67947
#	83700
#	103382
#	116762
#	130562
#	144542
#	155875
#	167512
#	181790
#
# Disc length: 2602 seconds
#
# Revision: 0
# Processed by: cddbd v1.5.2PL0 Copyright (c) Steve Scherf et al.
# Submitted via: CDex 1.70beta2
#
DISCID=c30a280e
DTITLE=Louis Armstrong - The Best of Louis Armstrong
DYEAR=2004
DGENRE=Jazz
TTITLE0=Do You Know What It Means to Miss New Orleans
TTITLE1=Where The Blues Were Born In New Orleans
TTITLE2=Rockin' Chair
TTITLE3=Jack-Armstrong Blues
TTITLE4=Blues For Yesterday
TTITLE5=Sugar
TTITLE6=Long Long Journey
TTITLE7=Mahogany Hall Stomp
TTITLE8=Perdido Street Blue
TTITLE9=Down In Honky-Tonk Town
TTITLE10=Cut off My Legs and Call me Shorty
TTITLE11=Satchel Mouth Swing
TTITLE12=Surrender Dear
TTITLE13=Dusky Stevedore
EXTD=YEAR: 2004
EXTT0=
EXTT1=
EXTT2=
EXTT3=
EXTT4=
EXTT5=
EXTT6=
EXTT7=
EXTT8=
EXTT9=
EXTT10=
EXTT11=
EXTT12=
EXTT13=
PLAYORDER=
